<svg width="109" height="102" viewBox="0 0 109 102" fill="none" xmlns="http://www.w3.org/2000/svg">
<path d="M50.4747 1.17368C50.6117 3.26007 50.5813 5.36168 50.3833 7.43284C50.3528 7.69174 50.3376 7.95063 50.2919 8.1943C50.2767 8.31613 50.2615 8.43797 50.2462 8.5598C50.231 8.74255 50.2919 8.27045 50.2462 8.54458C50.231 8.62072 50.231 8.71209 50.2158 8.78824C50.1396 9.30603 50.0483 9.82381 49.9569 10.3416C49.7589 11.3772 49.5 12.4128 49.1955 13.4179C49.0432 13.89 48.8909 14.3621 48.7233 14.8342C48.632 15.0626 48.5558 15.2911 48.4492 15.5195C48.4339 15.5652 48.373 15.6413 48.373 15.7023C48.373 15.55 48.4644 15.5043 48.4035 15.6109C48.3426 15.7327 48.2969 15.8545 48.236 15.9764C47.8705 16.7835 47.4288 17.5602 46.9415 18.2912C46.8349 18.4587 46.7131 18.6262 46.5913 18.7938C46.5303 18.8851 46.4542 18.9765 46.3932 19.0679C46.3628 19.0983 46.3323 19.144 46.3171 19.1745C46.4694 18.9004 46.378 19.0983 46.3323 19.1593C46.0582 19.5095 45.7537 19.8598 45.4491 20.1948C45.1445 20.5147 44.8399 20.8192 44.5048 21.1238C44.3526 21.2609 44.1851 21.3979 44.0176 21.535C43.9414 21.5959 43.8653 21.6568 43.7891 21.7178C43.6673 21.8091 44.0175 21.535 43.8348 21.6873C43.7739 21.733 43.7282 21.7634 43.6672 21.8091C43.2713 22.0985 42.8601 22.3726 42.4337 22.6163C42.0073 22.8599 41.5657 23.0427 41.124 23.2711C41.1393 23.2559 41.3829 23.1645 41.2153 23.2254C41.1544 23.2559 41.0936 23.2711 41.0326 23.3016C40.9108 23.3473 40.789 23.3929 40.6519 23.4386C40.4235 23.5148 40.195 23.5909 39.9514 23.6518C39.4793 23.7889 38.9919 23.8803 38.5046 23.9412C38.2457 23.9717 37.9411 24.2458 37.8193 24.459C37.6974 24.6874 37.6518 24.9311 37.6822 25.19C37.7584 25.7382 38.2305 26.1799 38.8092 26.1799C39.9209 26.1646 41.0326 26.1646 42.1443 26.2408C42.4032 26.256 42.6469 26.2865 42.9058 26.3169C42.921 26.3169 43.1952 26.3626 43.0124 26.3322C42.8144 26.3017 43.0885 26.3474 43.119 26.3474C43.256 26.3626 43.3931 26.3931 43.5302 26.4236C44.0784 26.5302 44.6115 26.6672 45.1293 26.8347C45.2206 26.8652 45.3272 26.9109 45.4186 26.9413C45.4643 26.9566 45.5252 26.987 45.5709 27.0022C45.6623 27.0327 45.7536 27.1241 45.51 26.9718C45.6927 27.0936 45.9212 27.1545 46.1191 27.2612C46.4999 27.4591 46.8654 27.6723 47.2004 27.916C47.2918 27.9769 47.3831 28.0378 47.4745 28.114C47.505 28.1444 47.5507 28.1749 47.5812 28.1901C47.7334 28.2967 47.5202 28.1444 47.505 28.1292C47.6573 28.2815 47.8553 28.4186 48.0228 28.5556C48.3578 28.8602 48.6776 29.1648 48.9822 29.4998C49.1193 29.6521 49.2563 29.8044 49.3782 29.9567C49.4391 30.0328 49.5 30.109 49.5762 30.2004C49.6676 30.3222 49.4086 29.9719 49.5457 30.1547C49.5914 30.2156 49.6218 30.2613 49.6675 30.3222C49.9264 30.6725 50.1549 31.038 50.3833 31.4035C50.6117 31.7842 50.825 32.1801 51.0229 32.5761C51.1143 32.7741 51.2057 32.9721 51.297 33.17C51.3123 33.2157 51.3275 33.2614 51.3579 33.2919C51.2361 33.0025 51.3122 33.17 51.3427 33.2462C51.3884 33.368 51.4341 33.4746 51.4798 33.5965C51.8301 34.5102 52.089 35.4392 52.2869 36.3834C52.3479 36.6575 52.3935 36.9164 52.4392 37.1905C52.4545 37.2971 52.4697 37.419 52.5001 37.5256C52.5154 37.6169 52.5306 37.6931 52.5306 37.7845C52.5306 37.7388 52.5154 37.6931 52.5154 37.6474C52.5154 37.7083 52.5306 37.754 52.5306 37.8149C52.5915 38.3632 52.6524 38.8962 52.6829 39.4444C52.8504 41.9572 52.6981 44.4853 52.5306 46.9828C52.5002 47.5463 52.9875 48.0336 53.5205 48.1098C54.084 48.1859 54.6017 47.8357 54.7692 47.2874C55.9723 43.4649 56.1247 39.4292 57.0232 35.5458C57.2212 34.6777 57.4496 33.8097 57.7542 32.9568C57.8151 32.7741 57.8913 32.5913 57.9522 32.4238C57.9827 32.3324 58.0435 32.2411 58.074 32.1345C58.074 32.1497 57.9674 32.3934 58.0435 32.2258C58.0587 32.1801 58.0893 32.1192 58.1045 32.0735C58.272 31.708 58.4395 31.3578 58.6223 31.0075C58.9878 30.307 59.4141 29.6369 59.8862 29.0125C59.9167 28.982 59.9472 28.9363 59.9624 28.9059C59.8101 29.1343 59.8558 29.0429 59.9015 28.982C59.9624 28.9059 60.0233 28.8297 60.0843 28.7536C60.2061 28.6013 60.3431 28.449 60.4802 28.2967C60.7391 28.0074 61.0132 27.7333 61.2874 27.4896C61.4549 27.3373 61.6071 27.2002 61.7899 27.0632C61.8203 27.0327 61.8508 27.0175 61.8965 26.987C61.6224 27.2002 61.8203 27.0479 61.866 27.0022C61.9574 26.9413 62.0336 26.8804 62.125 26.8195C62.46 26.5911 62.8102 26.3779 63.1757 26.1951C63.2671 26.1494 63.3737 26.1037 63.4651 26.0581C63.5108 26.0428 63.5413 26.0276 63.587 26.0124C63.8002 25.921 63.3585 26.1037 63.5565 26.0276C63.7545 25.9514 63.9524 25.8753 64.1656 25.8144C64.3788 25.7535 64.5768 25.6925 64.79 25.6469C64.8814 25.6316 64.988 25.6012 65.0794 25.586C65.1708 25.5707 65.5971 25.5098 65.2012 25.5555C65.5058 25.5098 65.7952 25.4641 66.0084 25.2204C66.1759 25.0377 66.2825 24.8245 66.3282 24.5656C66.4043 24.0478 66.0692 23.4234 65.5058 23.3168C65.0641 23.2254 64.6225 23.1188 64.1809 22.9818C63.9829 22.9208 63.8001 22.8447 63.6021 22.7838C63.4955 22.7381 63.389 22.6924 63.2824 22.662C63.6326 22.799 63.2366 22.6315 63.1453 22.601C62.3381 22.2203 61.5615 21.7634 60.8457 21.2304C60.8153 21.2 60.7695 21.1695 60.7391 21.1543C60.5868 21.0324 60.8 21.2 60.8152 21.2152C60.7391 21.139 60.6325 21.0781 60.5411 21.002C60.3584 20.8497 60.1908 20.7126 60.0233 20.5603C59.6883 20.2558 59.3532 19.9359 59.0486 19.5857C58.7441 19.2506 58.4547 18.9156 58.1654 18.5653C58.1349 18.5196 58.1044 18.474 58.0588 18.4283C58.074 18.4435 58.2263 18.6415 58.1045 18.4892C58.0283 18.3978 57.9674 18.3064 57.8912 18.2151C57.7542 18.0323 57.6172 17.8343 57.4953 17.6516C56.9928 16.9053 56.5511 16.1134 56.1551 15.3063C56.0637 15.1083 55.9724 14.9256 55.881 14.7276C55.8506 14.6819 55.8353 14.621 55.8201 14.5753C55.744 14.4078 55.8505 14.6362 55.8505 14.6514C55.8048 14.5144 55.7439 14.3925 55.6982 14.2707C55.5307 13.8595 55.3784 13.4331 55.2261 13.0067C54.5865 11.1335 54.1144 9.19943 53.7337 7.2501C53.5205 6.16884 53.3225 5.07234 53.155 3.97584C53.0789 3.45805 53.0027 2.9555 52.9266 2.43771C52.8961 2.17881 52.8504 1.93515 52.82 1.67625C52.8047 1.58488 52.7438 1.15846 52.8047 1.53919C52.7895 1.40212 52.7743 1.2803 52.7591 1.14323C52.7134 0.823422 52.6524 0.56452 52.424 0.336083C52.226 0.138105 51.9062 -0.014179 51.6169 0.00105013C51.3275 0.0162792 51.0077 0.107646 50.8097 0.336083C50.6117 0.579749 50.429 0.884331 50.4747 1.17368C51.0077 5.17894 51.6169 9.22987 52.8504 13.0828C54.0383 16.7531 55.9724 20.2558 59.003 22.7076C60.7239 24.0935 62.7037 25.1595 64.8814 25.5707C64.988 24.8245 65.0794 24.0783 65.186 23.332C64.2418 23.4539 63.3737 23.6975 62.4904 24.0783C61.7138 24.4133 60.998 24.8702 60.3279 25.4032C59.0182 26.4235 57.9369 27.7485 57.0841 29.1648C56.1856 30.642 55.5307 32.2715 55.0891 33.9467C54.5561 35.9265 54.2515 37.9672 53.9469 39.9927C53.6119 42.2771 53.2616 44.5614 52.561 46.7696C53.3073 46.8762 54.0535 46.9676 54.7997 47.0742C55.0891 42.5664 55.348 37.8454 53.8251 33.5051C52.5611 29.8806 50.0787 26.4845 46.4694 24.9615C44.048 23.9412 41.3981 23.9107 38.8092 23.9412C38.9158 24.6874 39.0072 25.4336 39.1138 26.1799C42.9515 25.6469 46.2257 23.1645 48.4644 20.1187C50.9468 16.7378 52.0281 12.4889 52.5459 8.37706C52.8504 5.98609 52.9113 3.57988 52.7438 1.18891C52.6981 0.594974 52.2412 0.0162681 51.6016 0.0467263C51.0229 0.0619554 50.429 0.534061 50.4747 1.17368Z" fill="#CC00FF" fill-opacity="0.6"/>
<path d="M8.18328 32.1345C8.44218 33.2766 8.67062 34.4341 8.86859 35.5915C8.9752 36.1549 9.06662 36.7184 9.14276 37.2819C9.18845 37.5712 9.23411 37.8454 9.26457 38.1347C9.27979 38.2565 9.29499 38.3936 9.31022 38.5154C9.34068 38.7287 9.31022 38.5307 9.31022 38.5002C9.32545 38.5916 9.34071 38.683 9.34071 38.7896C9.64529 41.0892 9.82801 43.3888 9.91939 45.7036C9.96508 46.6935 9.96513 47.6682 9.90422 48.658C9.88899 48.8865 9.8737 49.1149 9.84324 49.3434C9.82801 49.4652 9.81281 49.587 9.79758 49.7088C9.78236 49.8307 9.82804 49.9221 9.79758 49.6784C9.81281 49.7545 9.7671 49.8459 9.7671 49.9221C9.69095 50.3942 9.59958 50.851 9.46251 51.3079C9.4016 51.5363 9.32547 51.7495 9.24932 51.978C9.21886 52.0694 9.15799 52.176 9.14276 52.2673C9.20368 52.0389 9.20364 52.1455 9.17318 52.2064C9.14272 52.2826 9.11225 52.3435 9.08179 52.4196C8.86858 52.8613 8.62493 53.2724 8.33558 53.6684C8.25943 53.7598 8.19853 53.8664 8.12238 53.9578C8.13761 53.9273 8.2747 53.7598 8.15287 53.9121C8.12241 53.9578 8.09192 54.0035 8.04624 54.0339C7.89395 54.2319 7.7264 54.4299 7.55888 54.6278C7.23907 54.9933 6.88884 55.3588 6.53857 55.7091C6.15784 56.0898 5.76184 56.4401 5.35066 56.7904C5.13745 56.9731 4.92427 57.1559 4.69583 57.3234C4.65015 57.3691 4.58923 57.4148 4.54354 57.4452C4.51308 57.4605 4.33033 57.6128 4.4674 57.5062C4.61969 57.3995 4.40648 57.5518 4.39125 57.5671C4.33033 57.6128 4.25422 57.6584 4.1933 57.7194C3.27956 58.3894 2.33535 59.0138 1.37592 59.6078C0.964732 59.8667 0.690549 60.4149 0.858069 60.9022C1.01036 61.3591 1.45203 61.7703 1.95459 61.7398C2.91403 61.6789 3.87346 61.6332 4.84812 61.6789C5.48775 61.7094 6.12737 61.7703 6.75176 61.8464C7.10203 61.8769 7.43704 61.9074 7.78731 61.9378C7.89392 61.9378 8.00054 61.953 8.10714 61.9683C8.1376 61.9683 8.15283 61.9683 8.18328 61.9835C8.30512 61.9987 8.27464 61.9987 8.0919 61.9683C8.12235 61.9835 8.19856 61.9835 8.22902 61.9835C8.47268 62.0292 8.71632 62.0749 8.95998 62.151C9.17319 62.2119 9.38641 62.2881 9.58439 62.3642C9.64531 62.3795 9.69101 62.4099 9.75193 62.4251C9.90422 62.4861 9.47776 62.3033 9.70619 62.4099C9.82803 62.4708 9.93468 62.5165 10.0565 62.5774C10.4829 62.7906 10.8789 63.0343 11.2596 63.3084C11.3053 63.3389 11.351 63.3846 11.3966 63.415C11.5642 63.5369 11.351 63.3846 11.3357 63.3694C11.3814 63.4455 11.5489 63.5369 11.6098 63.5978C11.8078 63.7653 11.9906 63.9328 12.1733 64.1003C12.5236 64.4354 12.8739 64.8009 13.1785 65.1664C13.3308 65.3491 13.483 65.5319 13.6201 65.7146C13.4678 65.5014 13.7876 65.9279 13.6201 65.7146C13.6506 65.7603 13.681 65.7908 13.7115 65.8365C13.8029 65.9583 13.8942 66.0801 13.9703 66.202C14.2597 66.6132 14.5338 67.0243 14.7927 67.4507C15.3562 68.3797 15.874 69.3544 16.3461 70.3291C16.605 70.8621 16.8639 71.4103 17.1076 71.9433C17.1685 72.0652 17.2142 72.187 17.2751 72.3088C17.3055 72.3698 17.336 72.4459 17.3665 72.5068C17.4426 72.7048 17.3665 72.522 17.3512 72.4764C17.4883 72.7809 17.5949 73.0855 17.7167 73.3901C18.7066 75.8877 19.4681 78.4614 20.0011 81.096C20.1077 81.6595 20.7321 81.9793 21.2499 81.9184C21.8591 81.8423 22.1789 81.3702 22.2398 80.7915C22.7728 76.2075 21.6154 71.654 21.8895 67.0548C21.9047 66.6893 21.9504 66.3238 21.9809 65.9735C21.9961 65.8822 22.0114 65.7908 22.0114 65.6994C22.0266 65.5471 21.9657 66.0192 21.9961 65.7908C21.9961 65.7451 22.0114 65.7146 22.0114 65.6689C22.0418 65.471 22.0722 65.273 22.1027 65.075C22.2397 64.2983 22.4225 63.5216 22.6357 62.7754C22.7575 62.3795 22.8794 61.9835 23.0164 61.5875C23.0773 61.4048 23.1383 61.2373 23.2144 61.0698C23.2449 60.9784 23.2905 60.887 23.321 60.7956C23.3971 60.6281 23.2906 60.8718 23.2753 60.887C23.3058 60.8261 23.321 60.7652 23.3515 60.7043C23.6713 59.9885 24.0368 59.288 24.4784 58.6331C24.585 58.4656 24.7069 58.2981 24.8287 58.1305C24.844 58.1001 24.981 57.9326 24.8439 58.1001C24.7221 58.2676 24.8592 58.0849 24.8896 58.0544C24.9506 57.9783 25.0114 57.9021 25.0876 57.826C25.3465 57.5214 25.6359 57.232 25.9404 56.9731C26.0166 56.897 26.108 56.8361 26.1841 56.7751C26.2907 56.6838 25.9709 56.9274 26.0927 56.8513C26.1384 56.8208 26.1841 56.7904 26.2298 56.7447C26.3973 56.6381 26.5496 56.5315 26.7324 56.4249C26.8999 56.3335 27.0674 56.2421 27.2349 56.166C27.2654 56.1508 27.4481 56.0746 27.2502 56.1508C27.0674 56.2269 27.2197 56.166 27.2654 56.1508C27.372 56.1051 27.4785 56.0746 27.5852 56.0442C28.042 55.8919 28.4532 55.4502 28.4228 54.9477C28.3923 54.4299 28.0877 54.0187 27.5852 53.8512C25.6358 53.1963 23.5952 52.9222 21.6306 52.2978C21.4022 52.2216 21.1738 52.1455 20.9453 52.0541C20.8996 52.0389 20.8539 52.0237 20.8082 52.0084C20.7777 51.9932 20.5798 51.8866 20.7473 51.978C20.9148 52.0694 20.7169 51.9628 20.6864 51.9475C20.6255 51.9171 20.5494 51.8866 20.4884 51.8562C20.0468 51.6582 19.6356 51.4145 19.2396 51.1404C19.1787 51.0947 19.1178 51.049 19.0569 51.0186C18.9198 50.9272 19.0874 51.0642 19.1178 51.0642C19.0721 51.0795 18.8741 50.8663 18.8284 50.8206C18.6304 50.6378 18.4325 50.4551 18.2497 50.2571C18.0974 50.0896 17.9452 49.9068 17.7929 49.7241C17.7167 49.6327 17.6406 49.5413 17.5644 49.45C17.7624 49.6784 17.6406 49.5413 17.5949 49.4804C17.5492 49.4195 17.5035 49.3434 17.4426 49.2824C16.8944 48.5362 16.4375 47.7443 16.0263 46.9219C15.9197 46.7087 15.8283 46.5107 15.7369 46.2975C15.6912 46.2062 15.6456 46.1148 15.6151 46.0082C15.5847 45.9625 15.5694 45.9016 15.539 45.8559C15.4476 45.6427 15.6304 46.0691 15.539 45.8711C15.3562 45.4295 15.1887 44.9726 15.0211 44.5309C14.3358 42.6425 13.8028 40.6932 13.2089 38.7744C12.3865 36.1854 11.4271 33.6421 10.1783 31.2359C9.90419 30.7029 9.1123 30.5049 8.60974 30.8247C8.0615 31.175 7.90918 31.8146 8.19853 32.3934C8.50311 32.9721 8.79249 33.566 9.06662 34.1599C9.18845 34.434 9.3255 34.7082 9.4321 34.9823C9.41687 34.9518 9.34071 34.7539 9.41686 34.9518C9.44732 35.0128 9.47779 35.0889 9.50825 35.1498C9.56916 35.3021 9.63003 35.4544 9.69095 35.5915C10.1174 36.6575 10.4981 37.7388 10.8484 38.8353C11.488 40.7998 12.0363 42.7948 12.7064 44.7442C13.346 46.6021 14.1227 48.4448 15.2344 50.0743C15.8283 50.9424 16.4984 51.8257 17.3207 52.4958C18.204 53.242 19.1787 53.775 20.26 54.1862C22.4225 55.0238 24.7678 55.2675 26.9608 55.9985C26.9608 55.2675 26.9608 54.5365 26.9608 53.7902C23.6409 54.8563 21.7372 58.161 20.6864 61.2677C20.1381 62.8668 19.8031 64.542 19.6356 66.2172C19.4224 68.3797 19.5747 70.5727 19.7574 72.7353C19.9706 75.4004 20.2295 78.0654 19.9249 80.7305C20.6712 80.6239 21.4174 80.5326 22.1637 80.426C21.6763 78.035 20.991 75.6745 20.1381 73.3901C19.2701 71.0905 18.2497 68.8214 17.0162 66.6893C15.9654 64.8923 14.7014 63.1409 13.0871 61.816C12.2038 61.1002 11.29 60.5215 10.224 60.1103C9.27977 59.7296 8.2899 59.623 7.28478 59.5316C6.55378 59.4707 5.83805 59.3793 5.10705 59.3336C4.02578 59.2727 2.95972 59.3184 1.87845 59.3793C2.07643 60.0951 2.25915 60.7956 2.45713 61.5114C4.25416 60.3997 6.00552 59.1814 7.57412 57.7346C9.12749 56.2878 10.5743 54.6278 11.351 52.6328C12.0972 50.714 12.219 48.5667 12.1733 46.5107C12.1277 44.1807 11.9449 41.8506 11.6707 39.551C11.3509 36.8403 10.8941 34.1295 10.3001 31.4644C10.1631 30.8857 9.46256 30.4897 8.89908 30.6725C8.36606 30.9313 8.03099 31.5101 8.18328 32.1345Z" fill="#CC00FF" fill-opacity="0.6"/>
<path d="M68.0946 62.8059C68.3078 63.6435 68.4754 64.4811 68.5972 65.3491C68.582 65.2425 68.5667 65.1512 68.5515 65.0446C68.7799 66.735 68.8104 68.4711 68.582 70.1615C68.5972 70.0549 68.6124 69.9636 68.6276 69.8569C68.4449 71.2276 68.0946 72.5677 67.5616 73.8317C67.6073 73.7404 67.6378 73.649 67.6835 73.5576C67.4246 74.1668 67.1352 74.7607 66.785 75.3242C66.6175 75.6136 66.4194 75.9029 66.2215 76.177C66.1301 76.2989 66.0387 76.4207 65.9474 76.5425C66.191 76.2227 65.993 76.4816 65.9321 76.5578C65.8712 76.6339 65.8103 76.7101 65.7494 76.771C65.3229 77.2888 64.8356 77.7609 64.3331 78.2025C64.2112 78.3091 64.0742 78.4157 63.9523 78.5223C63.8762 78.5832 63.6173 78.7812 63.9371 78.5375C63.861 78.5832 63.8001 78.6441 63.7239 78.7051C63.4346 78.9183 63.13 79.1162 62.8254 79.3142C62.2467 79.6645 61.668 79.9691 61.0436 80.228C61.1349 80.1823 61.2263 80.1518 61.3177 80.1061C60.876 80.2889 60.4344 80.4716 59.9928 80.6696C59.6882 80.8067 59.3989 80.9285 59.1704 81.1569C58.6526 81.6443 58.744 82.4819 59.277 82.8931C59.5511 83.1063 59.9166 83.1672 60.2365 83.2586C60.7847 83.4261 61.3329 83.6241 61.8659 83.8525C61.7746 83.8068 61.6832 83.7764 61.5918 83.7307C63.0386 84.3551 64.4397 85.1317 65.6885 86.076C65.7189 86.1064 65.7494 86.1216 65.7798 86.1521C65.5209 85.9541 65.6275 86.0455 65.6885 86.076C65.7646 86.1369 65.8255 86.1826 65.9016 86.2435C66.0387 86.3501 66.1758 86.4719 66.2976 86.5785C66.5261 86.7917 66.7545 87.0049 66.9677 87.2486C67.0743 87.3552 67.1657 87.477 67.2723 87.5989C67.318 87.6598 67.3636 87.7207 67.4093 87.7816C67.455 87.8425 67.5312 87.9491 67.318 87.675C67.3485 87.7207 67.3789 87.7512 67.4093 87.7968C67.5921 88.0405 67.7749 88.2994 67.9272 88.5735C68.3231 89.1979 68.6429 89.868 68.9475 90.5533C68.9018 90.4619 68.8713 90.3706 68.8257 90.2792C69.9222 92.8986 70.4247 95.716 70.912 98.5029C71.0338 99.2491 71.1709 99.9954 71.308 100.742C71.3537 101 71.6125 101.305 71.8258 101.427C72.0542 101.549 72.2979 101.594 72.5568 101.564C73.1203 101.488 73.5315 101.016 73.5467 100.437C73.5924 99.173 73.638 97.909 73.6837 96.6297C73.7294 95.4114 73.7294 94.1778 73.8969 92.9595C73.8817 93.0661 73.8665 93.1575 73.8513 93.2641C74.0036 92.2133 74.232 91.1625 74.5061 90.1421C74.6432 89.6396 74.7954 89.137 74.9477 88.6344C75.0848 88.2233 75.2067 87.7968 75.3742 87.3856C75.3285 87.477 75.298 87.5684 75.2523 87.6598C75.4655 87.1724 75.7397 86.7156 76.0595 86.2892C76.1052 86.2282 76.1508 86.1673 76.1965 86.0912C76.3031 85.9541 75.9985 86.3349 76.166 86.1216C76.2726 85.9846 76.3793 85.8627 76.4859 85.7257C76.6839 85.482 76.8971 85.2536 77.1103 85.0251C77.5672 84.553 78.0545 84.0962 78.557 83.6545C78.6789 83.5479 78.8007 83.4565 78.9225 83.3499C78.9834 83.3042 79.0444 83.2586 79.1053 83.1976C79.1358 83.1672 79.1662 83.1367 79.2119 83.1215C79.1662 83.152 78.9835 83.3043 79.1206 83.1824C79.3642 82.9997 79.6231 82.8169 79.8668 82.6342C80.3693 82.2991 80.8871 81.9793 81.4506 81.7509C81.3592 81.7966 81.2679 81.827 81.1765 81.8727C81.2222 81.8575 81.2678 81.8423 81.3135 81.8118C81.5877 81.7052 81.8465 81.5529 81.9988 81.294C82.1207 81.0656 82.1663 80.8219 82.1359 80.563C82.0597 79.9995 81.5877 79.5731 81.0089 79.5731C80.7501 79.5731 80.4912 79.5579 80.2475 79.5274C80.3541 79.5427 80.4455 79.5579 80.5521 79.5731C80.0495 79.497 79.5469 79.3599 79.0748 79.1619C79.1662 79.2076 79.2576 79.2381 79.349 79.2838C79.0596 79.1619 78.7855 79.0249 78.5266 78.8573C78.3895 78.7812 78.2677 78.6898 78.1307 78.6137C78.0697 78.568 77.9936 78.5223 77.9326 78.4766C77.9022 78.4614 77.8717 78.4309 77.8412 78.4157C77.826 78.4005 77.8108 78.3853 77.7956 78.3853C77.689 78.2939 77.9479 78.5071 77.9326 78.4918C77.4148 78.0654 76.9275 77.6086 76.4706 77.106C76.364 76.9689 76.2422 76.8471 76.1356 76.71C76.0899 76.6491 76.029 76.573 75.9833 76.5121C75.8615 76.3598 76.1052 76.6644 76.0595 76.6035C76.029 76.5578 75.9986 76.5273 75.9681 76.4816C75.7397 76.1923 75.5417 75.8877 75.3284 75.5831C74.902 74.9435 74.5214 74.2734 74.1711 73.5881C73.7599 72.7962 73.3792 71.9738 73.0289 71.1514C73.0746 71.2428 73.105 71.3342 73.1507 71.4256C72.1304 69.0041 71.3384 66.4761 70.6836 63.9176C70.5313 63.3237 70.3942 62.745 70.2572 62.151C70.1201 61.5723 69.4196 61.1764 68.8561 61.3591C68.2774 61.6028 67.9423 62.1815 68.0946 62.8059C68.4144 64.1917 68.7647 65.5776 69.1759 66.9482C69.648 68.5473 70.1963 70.1463 70.8207 71.6997C71.4908 73.3292 72.237 74.9435 73.1812 76.4359C74.0188 77.7761 75.0239 79.0858 76.2574 80.0757C76.8514 80.5478 77.4758 80.9894 78.1763 81.294C78.953 81.629 79.7145 81.8423 80.5673 81.9184C80.7348 81.9336 80.9023 81.9336 81.0546 81.9336C80.948 81.1874 80.8566 80.4412 80.75 79.695C79.5012 80.1823 78.42 80.9437 77.3844 81.7813C76.3488 82.6189 75.3742 83.5632 74.5518 84.614C74.1406 85.1317 73.7599 85.6495 73.4553 86.2435C73.105 86.944 72.8766 87.7055 72.6482 88.4517C72.0999 90.264 71.6582 92.1067 71.5212 93.9951C71.445 95.0611 71.4298 96.1424 71.3994 97.2084C71.3689 98.3049 71.3232 99.3862 71.2927 100.483C72.039 100.376 72.7852 100.285 73.5314 100.178C72.9832 97.1475 72.572 94.0712 71.5973 91.1473C71.0948 89.67 70.4704 88.1928 69.5566 86.9136C69.0998 86.2587 68.582 85.6495 68.0033 85.1013C67.3332 84.4921 66.587 83.9439 65.8255 83.4566C64.9879 82.9083 64.1046 82.421 63.1909 82.0098C62.6731 81.7661 62.1401 81.5529 61.5918 81.3549C61.1502 81.2026 60.7085 81.0808 60.2669 80.9437C60.3582 80.9894 60.4497 81.0199 60.541 81.0656C60.6781 81.2026 60.7999 81.3245 60.9369 81.4615C60.9826 81.5529 61.0131 81.6443 61.0588 81.7357C61.074 81.8423 61.0892 81.9336 61.1045 82.0402C61.0892 82.1468 61.074 82.2382 61.0588 82.3448C61.0131 82.4362 60.9826 82.5276 60.9369 82.6189C60.8456 82.756 60.7238 82.9235 60.5867 82.9844C60.6172 82.9692 60.6324 82.954 60.6628 82.9388C60.739 82.8931 60.8151 82.8626 60.8913 82.8169C61.1045 82.7103 61.3329 82.6189 61.5613 82.5276C61.47 82.5732 61.3786 82.6037 61.2873 82.6494C61.9116 82.3905 62.5512 82.1316 63.1604 81.8118C63.8609 81.4463 64.5158 81.0199 65.1402 80.5478C66.4651 79.5274 67.6073 78.3243 68.5058 76.9233C70.242 74.2582 71.0034 71.0296 71.0186 67.8772C71.0186 65.9888 70.7597 64.0851 70.3028 62.2576C70.1505 61.6789 69.4805 61.2677 68.9018 61.4657C68.2926 61.6028 67.9271 62.1815 68.0946 62.8059Z" fill="#CC00FF" fill-opacity="0.6"/>
<path d="M83.5221 22.4031C83.6439 22.9665 83.7505 23.53 83.8419 24.0935C83.8876 24.3676 83.9333 24.657 83.979 24.9463C83.9942 25.0377 84.0703 25.4641 84.0094 25.1291C84.0398 25.2966 84.0551 25.4641 84.0704 25.6164C84.2074 26.7738 84.314 27.9465 84.3749 29.1191C84.4968 31.4796 84.4815 33.8553 84.314 36.2006C84.2683 36.7793 84.2226 37.358 84.1769 37.952C84.1465 38.2109 84.1312 38.485 84.1008 38.7439C84.0855 38.8657 84.0703 38.9875 84.0551 39.1246C84.0551 39.1855 84.0399 39.2465 84.0399 39.2921C84.0246 39.3835 84.0399 39.3378 84.0551 39.1551C84.0551 39.2008 84.0399 39.2465 84.0399 39.2921C83.9028 40.2668 83.6896 41.2262 83.4307 42.1704C83.2936 42.6425 83.1414 43.1146 82.9738 43.5715C82.8825 43.8 82.8063 44.0284 82.7149 44.2568C82.6997 44.3177 82.6692 44.3634 82.654 44.4243C82.7454 44.135 82.6997 44.3025 82.6693 44.3787C82.6083 44.5005 82.5626 44.6375 82.5017 44.7594C82.0905 45.6579 81.6184 46.5107 81.055 47.3331C80.9027 47.5615 80.7352 47.79 80.5677 48.0032C80.522 48.0641 80.4306 48.1402 80.6133 47.9423C80.5676 48.0032 80.5067 48.0641 80.461 48.125C80.3697 48.2316 80.2935 48.3382 80.2021 48.4448C79.8518 48.856 79.4864 49.2367 79.0904 49.6175C78.8924 49.8002 78.6945 49.983 78.4812 50.1657C78.3746 50.2571 78.2528 50.3332 78.1614 50.4246C78.3594 50.2266 78.2833 50.3332 78.2072 50.3941C78.1462 50.4398 78.0853 50.4855 78.0091 50.5312C77.5675 50.851 77.0954 51.1556 76.6081 51.4145C76.1817 51.6429 75.938 52.2369 76.0902 52.709C76.1512 52.8917 76.2426 53.0745 76.3797 53.2115C76.5472 53.3943 76.9279 53.577 77.1868 53.5466C78.2071 53.4248 79.2275 53.3638 80.2478 53.3943C80.7504 53.4095 81.2377 53.44 81.7403 53.4857C81.8621 53.5009 81.9992 53.5161 82.121 53.5314C82.2124 53.5466 82.6692 53.6075 82.2733 53.5466C82.5322 53.5923 82.7911 53.6227 83.05 53.6684C84.0399 53.8359 85.0297 54.0796 85.9892 54.3842C86.4765 54.5365 86.9638 54.704 87.4359 54.902C87.5425 54.9477 87.6339 54.9781 87.7405 55.0238C87.8014 55.0543 87.8624 55.0695 87.9233 55.0999C87.6035 54.9781 87.8167 55.0543 87.8928 55.0847C88.1365 55.1913 88.3649 55.2979 88.6086 55.4045C89.5376 55.8462 90.4361 56.3335 91.2889 56.8818C91.7154 57.1559 92.1266 57.43 92.5225 57.7346C92.6291 57.8107 92.7357 57.8869 92.8423 57.963C92.888 58.0087 92.9489 58.0392 92.9946 58.0849C92.7509 57.9021 92.8575 57.9783 92.9184 58.0239C93.1469 58.2067 93.3601 58.3742 93.5733 58.557C94.3348 59.1966 95.0657 59.8971 95.7358 60.6281C96.0861 61.0088 96.4211 61.4048 96.7562 61.816C96.8171 61.9074 96.8932 61.9835 96.9541 62.0749C96.7105 61.7855 96.9998 62.1358 97.0455 62.2119C97.1978 62.4252 97.3501 62.6384 97.5024 62.8516C98.142 63.7805 98.7207 64.7552 99.2081 65.7603C99.3299 66.0192 99.4517 66.2781 99.5583 66.5218C99.6497 66.735 99.4517 66.2629 99.5431 66.4913C99.5735 66.5675 99.604 66.6588 99.6345 66.735C99.6802 66.8568 99.7258 66.9787 99.7715 67.1005C99.9847 67.6487 100.167 68.2122 100.32 68.7757C100.487 69.3544 101.142 69.7656 101.721 69.5676C101.995 69.4762 102.269 69.3087 102.406 69.0498C102.558 68.7605 102.574 68.4863 102.528 68.1665C102.528 68.1513 102.482 67.8619 102.513 68.0447C102.543 68.2274 102.498 67.9533 102.498 67.9381C102.482 67.8315 102.467 67.7249 102.452 67.6183C102.421 67.3746 102.391 67.1309 102.376 66.8873C102.345 66.5065 102.315 66.1258 102.3 65.7451C102.284 65.1512 102.3 64.542 102.284 63.9481C102.284 63.2018 102.239 62.4708 102.163 61.7246C102.102 61.1611 102.025 60.5977 101.949 60.0342C101.904 59.6991 101.858 59.3641 101.812 59.0138C101.797 58.9529 101.797 58.892 101.782 58.8311C101.736 58.5417 101.812 59.0138 101.782 58.8311C101.767 58.6636 101.736 58.5113 101.721 58.3438C101.584 57.2625 101.462 56.166 101.432 55.0695C101.416 54.506 101.416 53.9578 101.462 53.3943C101.477 53.1354 101.492 52.8613 101.538 52.6024C101.477 52.9222 101.569 52.4501 101.569 52.3892C101.599 52.2369 101.614 52.0998 101.645 51.9475C101.736 51.4754 101.873 51.0186 102.025 50.5769C102.086 50.3789 102.163 50.181 102.239 49.983C102.269 49.8916 102.3 49.8002 102.345 49.7241C102.361 49.6632 102.391 49.6175 102.406 49.5565C102.513 49.3129 102.361 49.6784 102.406 49.5718C102.772 48.7647 103.183 47.988 103.67 47.257C103.807 47.059 104.005 46.8458 104.127 46.6326C104.112 46.6478 103.96 46.8458 104.081 46.6935C104.127 46.6326 104.173 46.5869 104.218 46.526C104.295 46.4346 104.371 46.3432 104.447 46.2518C104.767 45.8863 105.102 45.5361 105.467 45.201C105.65 45.0335 105.848 44.866 106.046 44.6985C106.198 44.5766 106 44.7442 105.985 44.7442C106.046 44.7137 106.092 44.6528 106.153 44.6223C106.259 44.5462 106.366 44.47 106.457 44.3939C106.868 44.1045 107.295 43.8609 107.752 43.6324C108.178 43.4192 108.422 42.7948 108.269 42.338C108.102 41.8354 107.691 41.5308 107.173 41.5004C106.64 41.4699 106.107 41.4242 105.574 41.3633C105.452 41.3481 105.33 41.3328 105.208 41.3176C105.147 41.3176 105.086 41.2872 105.026 41.2872C105.33 41.2719 105.132 41.3024 105.041 41.2872C104.767 41.2415 104.493 41.211 104.234 41.1653C103.198 40.9826 102.178 40.7541 101.188 40.4648C100.685 40.3125 100.198 40.1602 99.7106 39.9775C99.4822 39.8861 99.2537 39.8099 99.0101 39.7185C98.9796 39.7033 98.6598 39.5815 98.6598 39.5815C98.7055 39.5967 98.7512 39.6272 98.7969 39.6424C98.7512 39.6272 98.7055 39.5967 98.6598 39.5815C98.5989 39.551 98.5228 39.5206 98.4619 39.4901C97.5024 39.0637 96.5887 38.5764 95.7054 38.0129C95.2637 37.7235 94.8221 37.4342 94.4109 37.1144C94.3652 37.0839 94.3347 37.0535 94.289 37.023C94.3347 37.0687 94.5479 37.2058 94.289 37.023C94.1977 36.9469 94.0911 36.8707 93.9997 36.7946C93.7865 36.627 93.5885 36.4443 93.3905 36.2615C93.0098 35.9113 92.6291 35.5458 92.2788 35.165C91.9133 34.7691 91.5935 34.3427 91.2432 33.9467C91.4564 34.1904 91.1976 33.8858 91.1519 33.8097C91.0758 33.7031 90.9996 33.6117 90.9235 33.5051C90.7559 33.2766 90.6036 33.0482 90.4513 32.8198C90.1468 32.3629 89.8726 31.8908 89.5985 31.4187C89.0655 30.4745 88.5934 29.4998 88.1517 28.4947C88.1365 28.449 88.1061 28.4033 88.0908 28.3576C88.0756 28.312 88.0452 28.2663 88.0299 28.2206C88.0908 28.3729 88.106 28.3881 88.0603 28.2815C87.9994 28.1444 87.9386 27.9921 87.8776 27.8551C87.771 27.5809 87.6644 27.3068 87.5578 27.0327C87.3446 26.4692 87.1314 25.8905 86.9334 25.327C86.5222 24.1544 86.1415 22.9818 85.7607 21.8091C85.578 21.2456 84.9536 20.8192 84.3597 21.0172C83.7505 21.1847 83.3241 21.7939 83.5221 22.4031C84.8927 26.6824 86.3242 31.0989 88.9893 34.7691C90.3447 36.6423 91.9743 38.2566 93.8931 39.5815C95.7054 40.8303 97.7309 41.7745 99.8172 42.4598C102.193 43.2365 104.675 43.6629 107.173 43.8C106.975 43.0842 106.792 42.3836 106.594 41.6679C103.137 43.3888 100.731 46.8153 99.6802 50.4855C99.0406 52.7242 99.071 55.0543 99.3299 57.3386C99.406 57.9783 99.4822 58.6027 99.5736 59.2423C99.5888 59.3946 99.6192 59.5316 99.6345 59.6839C99.6497 59.7448 99.6497 59.8057 99.665 59.8667C99.7106 60.156 99.6345 59.6839 99.665 59.8819C99.7106 60.1712 99.7411 60.4758 99.7868 60.7652C99.8934 61.6637 100 62.5622 100.015 63.4607C100.03 64.146 100.015 64.8313 100.03 65.5167C100.061 66.5979 100.183 67.6792 100.335 68.7605C101.066 68.5625 101.797 68.3493 102.543 68.1513C101.371 64.009 98.9339 60.2626 95.7358 57.4148C92.5377 54.5517 88.5782 52.4653 84.3749 51.5973C82.0297 51.1099 79.593 50.9576 77.2173 51.2622C77.4152 51.978 77.598 52.6785 77.7959 53.3943C81.5423 51.3384 84.0703 47.6377 85.3952 43.6477C86.0806 41.5765 86.3852 39.4292 86.5527 37.2514C86.7507 34.8452 86.8116 32.439 86.7202 30.0328C86.6136 27.2764 86.3242 24.5199 85.7607 21.8243C85.6389 21.2456 84.9232 20.8497 84.3597 21.0324C83.7048 21.2 83.4003 21.7787 83.5221 22.4031Z" fill="#CC00FF" fill-opacity="0.6"/>
</svg>
